<svg width="32" height="32" fill="none" xmlns="http://www.w3.org/2000/svg"><path d="M4.688 32h10.437V20.625h-3.75v-3.75h3.75v-4.688A4.693 4.693 0 0119.813 7.5H24.5v3.75h-3.75a1.877 1.877 0 00-1.875 1.875v3.75h5.456l-.625 3.75h-4.831V32h8.438A4.693 4.693 0 0032 27.312V4.688A4.693 4.693 0 0027.312 0H4.688A4.693 4.693 0 000 4.688v22.625A4.693 4.693 0 004.688 32zM1.874 4.687a2.816 2.816 0 012.813-2.812h22.625a2.816 2.816 0 012.812 2.813v22.625a2.816 2.816 0 01-2.813 2.812H20.75V22.5h4.544l1.25-7.5H20.75v-1.875h5.625v-7.5h-6.563a6.57 6.57 0 00-6.562 6.563V15H9.5v7.5h3.75v7.625H4.687a2.816 2.816 0 01-2.812-2.813V4.688z" fill="#fff"/></svg>H20.75V13.125H26.375V5.625H19.8125C16.1938 5.625 13.25 8.56885 13.25 12.1875V15H9.5V22.5H13.25V30.125H4.6875C3.13672 30.125 1.875 28.8633 1.875 27.3125V4.6875Z" fill="white"/>
</svg>
