<svg width="32" height="23" fill="none" xmlns="http://www.w3.org/2000/svg"><path d="M2.941 22.48H29.06c1.621 0 2.941-1.223 2.941-2.725V2.725C32 1.222 30.68 0 29.059 0H2.94C1.32 0 0 1.223 0 2.725v17.03c0 1.502 1.32 2.725 2.941 2.725zM1.916 2.725c0-.525.46-.95 1.025-.95H29.06c.566 0 1.025.425 1.025.95v17.03c0 .525-.46.95-1.025.95H2.94c-.566 0-1.025-.425-1.025-.95V2.725zM5.713 19.45H3.798V3.105L15.76 10.3c.14.085.337.085.479 0l11.962-7.195V19.45h-1.915V6.373l-9.005 5.416c-.382.23-.825.35-1.282.35-.457 0-.9-.12-1.282-.35L5.713 6.373V19.45z" fill="#fff"/></svg>15.7608 10.3005C15.9015 10.3851 16.0983 10.3852 16.2395 10.3002L28.2023 3.10508V19.4502H26.2867V6.3732L17.2823 11.789C16.9002 12.0186 16.4568 12.1399 16 12.1399C15.5432 12.1399 15.0998 12.0186 14.7179 11.7891L5.71344 6.3732V19.4502Z" fill="white"/>
</svg>
