<svg width="32" height="32" fill="none" xmlns="http://www.w3.org/2000/svg"><path d="M4.688 32h22.625A4.693 4.693 0 0032 27.312V4.688A4.693 4.693 0 0027.312 0H4.688A4.693 4.693 0 000 4.688v22.625A4.693 4.693 0 004.688 32zM1.874 4.687a2.816 2.816 0 012.813-2.812h22.625a2.816 2.816 0 012.812 2.813v22.625a2.816 2.816 0 01-2.813 2.812H4.688a2.816 2.816 0 01-2.812-2.813V4.688z" fill="#fff"/><path d="M16 24.438c4.652 0 8.438-3.786 8.438-8.438 0-4.652-3.786-8.438-8.438-8.438-4.652 0-8.438 3.786-8.438 8.438 0 4.652 3.786 8.438 8.438 8.438zm0-15A6.57 6.57 0 0122.563 16 6.57 6.57 0 0116 22.563 6.57 6.57 0 019.437 16 6.57 6.57 0 0116 9.437zm9.375 0a2.816 2.816 0 002.813-2.813 2.816 2.816 0 00-2.813-2.813 2.816 2.816 0 00-2.813 2.813 2.816 2.816 0 002.813 2.813zm0-3.75a.939.939 0 010 1.875.939.939 0 010-1.875z" fill="#fff"/></svg>